<svg width="302" height="313" viewBox="0 0 302 313" fill="none" xmlns="http://www.w3.org/2000/svg">
    <g id="Vector">
        <path d="M22.033 184.911L138.706 68.2386L159.919 89.4518L43.2462 206.124L22.033 184.911Z" fill="#FDFFFC"/>
        <path d="M54.1184 173.598L81.6956 146.02L99.3732 163.698L71.7961 191.275L54.1184 173.598Z" fill="#FDFFFC"/>
        <path d="M85.6726 248.551L159.919 174.305L181.132 195.518L106.886 269.764L85.6726 248.551Z" fill="#FDFFFC"/>
        <path d="M106.886 269.764L212.952 163.698L234.165 184.911L128.099 290.977L106.886 269.764Z" fill="#FDFFFC"/>
        <path d="M64.4594 227.338L212.952 78.8452L234.165 100.058L85.6726 248.551L64.4594 227.338Z" fill="#FDFFFC"/>
        <path d="M244.772 131.878L276.591 100.058L297.805 121.272L265.985 153.091L244.772 131.878Z" fill="#FDFFFC"/>
        <path d="M170.525 36.4188L181.132 25.8122L202.345 47.0254L191.739 57.632L170.525 36.4188Z" fill="#FDFFFC"/>
        <path d="M113.515 125.514L124.122 114.908L131.193 121.979L120.586 132.585L113.515 125.514Z" fill="#FDFFFC"/>
        <path d="M223.338 26.033L244.551 4.81976L265.764 26.033L244.551 47.2462L223.338 26.033Z" fill="#FDFFFC"/>
        <path d="M128.099 184.911C157.388 214.201 157.388 261.688 128.099 290.977C98.8097 320.267 51.3224 320.267 22.033 290.977C-7.25629 261.688 -7.25629 214.201 22.033 184.911C51.3223 155.622 98.8097 155.622 128.099 184.911Z" fill="#FDFFFC"/>
        <path d="M234.165 78.8452C240.023 84.7031 240.023 94.2006 234.165 100.058C228.307 105.916 218.81 105.916 212.952 100.058C207.094 94.2006 207.094 84.7031 212.952 78.8452C218.81 72.9874 228.307 72.9874 234.165 78.8452Z" fill="#FDFFFC"/>
        <path d="M131.635 103.594C126.946 108.282 124.312 114.641 124.312 121.272C124.312 127.902 126.946 134.261 131.635 138.949C136.323 143.638 142.682 146.272 149.312 146.272C155.943 146.272 162.301 143.638 166.99 138.949L159.919 131.878C157.106 134.691 153.29 136.272 149.312 136.272C145.334 136.272 141.519 134.691 138.706 131.878C135.893 129.065 134.312 125.25 134.312 121.272C134.312 117.293 135.893 113.478 138.706 110.665L131.635 103.594Z" fill="#FDFFFC"/>
        <path d="M138.485 167.454C143.173 162.766 145.807 156.407 145.807 149.777C145.807 143.146 143.173 136.787 138.485 132.099C133.796 127.411 127.438 124.777 120.807 124.777C114.177 124.777 107.818 127.411 103.13 132.099L110.201 139.17C113.014 136.357 116.829 134.777 120.807 134.777C124.785 134.777 128.601 136.357 131.414 139.17C134.227 141.983 135.807 145.798 135.807 149.777C135.807 153.755 134.227 157.57 131.414 160.383L138.485 167.454Z" fill="#FDFFFC"/>
        <path d="M96.7656 138.463C92.0772 143.151 89.4433 149.51 89.4433 156.141C89.4433 162.771 92.0772 169.13 96.7656 173.818C101.454 178.507 107.813 181.141 114.443 181.141C121.074 181.141 127.433 178.507 132.121 173.818L125.05 166.747C122.237 169.56 118.422 171.141 114.443 171.141C110.465 171.141 106.65 169.56 103.837 166.747C101.024 163.934 99.4433 160.119 99.4433 156.141C99.4433 152.162 101.024 148.347 103.837 145.534L96.7656 138.463Z" fill="#FDFFFC"/>
        <path d="M163.454 156.627C158.766 161.315 156.132 167.674 156.132 174.305C156.132 180.935 158.766 187.294 163.454 191.982C168.143 196.671 174.502 199.305 181.132 199.305C187.762 199.305 194.121 196.671 198.81 191.982L191.739 184.911C188.926 187.724 185.11 189.305 181.132 189.305C177.154 189.305 173.338 187.724 170.525 184.911C167.712 182.098 166.132 178.283 166.132 174.305C166.132 170.326 167.712 166.511 170.525 163.698L163.454 156.627Z" fill="#FDFFFC"/>
        <path d="M159.919 68.2386C165.777 74.0965 165.777 83.594 159.919 89.4518C154.061 95.3097 144.564 95.3097 138.706 89.4518C132.848 83.594 132.848 74.0965 138.706 68.2386C144.563 62.3808 154.061 62.3808 159.919 68.2386Z" fill="#FDFFFC"/>
        <path d="M191.739 36.4188C197.596 42.2767 197.597 51.7742 191.739 57.632C185.881 63.4899 176.383 63.4899 170.525 57.632C164.668 51.7742 164.668 42.2767 170.525 36.4188C176.383 30.561 185.881 30.561 191.739 36.4188Z" fill="#FDFFFC"/>
        <path d="M202.345 25.8122C208.203 31.6701 208.203 41.1676 202.345 47.0254C196.487 52.8833 186.99 52.8833 181.132 47.0254C175.274 41.1676 175.274 31.6701 181.132 25.8122C186.99 19.9544 196.487 19.9544 202.345 25.8122Z" fill="#FDFFFC"/>
        <path d="M244.772 25.8122C250.63 31.6701 250.63 41.1675 244.772 47.0254C238.914 52.8833 229.416 52.8833 223.558 47.0254C217.701 41.1675 217.701 31.6701 223.558 25.8122C229.416 19.9543 238.914 19.9543 244.772 25.8122Z" fill="#FDFFFC"/>
        <path d="M265.764 4.81976C271.622 10.6776 271.622 20.1751 265.764 26.033C259.906 31.8908 250.409 31.8908 244.551 26.033C238.693 20.1751 238.693 10.6776 244.551 4.81976C250.409 -1.03811 259.906 -1.0381 265.764 4.81976Z" fill="#FDFFFC"/>
        <path d="M297.584 100.279C303.442 106.137 303.442 115.635 297.584 121.492C291.726 127.35 282.229 127.35 276.371 121.492C270.513 115.635 270.513 106.137 276.371 100.279C282.229 94.4213 291.726 94.4213 297.584 100.279Z" fill="#FDFFFC"/>
        <path d="M265.985 131.878C271.843 137.736 271.843 147.234 265.985 153.091C260.127 158.949 250.63 158.949 244.772 153.091C238.914 147.234 238.914 137.736 244.772 131.878C250.63 126.02 260.127 126.02 265.985 131.878Z" fill="#FDFFFC"/>
        <path d="M234.165 163.698C240.023 169.556 240.023 179.053 234.165 184.911C228.307 190.769 218.81 190.769 212.952 184.911C207.094 179.053 207.094 169.556 212.952 163.698C218.81 157.84 228.307 157.84 234.165 163.698Z" fill="#FDFFFC"/>
    </g>
</svg>
